<svg width="1440" height="936" viewBox="0 0 1440 936" fill="none" xmlns="http://www.w3.org/2000/svg">
<path fill-rule="evenodd" clip-rule="evenodd" d="M1296.68 -232.898C1336.53 -238.55 1380.18 -232.903 1414.66 -214.764C1448.73 -196.84 1470.86 -165.107 1486.05 -133.272C1499.64 -104.774 1490.28 -72.5963 1496.91 -42.3161C1502.7 -15.8931 1517.74 7.75648 1522.75 34.2975C1528.75 66.0847 1549.57 102.6 1529.38 129.688C1508.83 157.253 1456.4 147.725 1424.71 165.807C1394.73 182.917 1384.62 222.293 1350.4 231.825C1316.69 241.219 1279.27 227.986 1247.02 215.316C1217.17 203.586 1202.06 173.202 1172.06 161.752C1132.35 146.599 1067.56 171.15 1046.05 138.616C1024.47 105.978 1089.57 70.3242 1086.83 32.8269C1084.25 -2.43506 1024.99 -25.6365 1031.5 -60.5187C1037.61 -93.2572 1087.56 -104.308 1116.51 -126.126C1142.6 -145.786 1166.24 -166.664 1194.79 -183.585C1227.25 -202.817 1257.83 -227.388 1296.68 -232.898Z" fill="#CDCAE5"/>
<path fill-rule="evenodd" clip-rule="evenodd" d="M1294.18 -206.144C1325.86 -211.134 1360.55 -206.149 1387.96 -190.132C1415.04 -174.305 1432.63 -146.286 1444.7 -118.177C1455.51 -93.0134 1448.07 -64.601 1453.34 -37.8642C1457.94 -14.5332 1469.9 6.34881 1473.88 29.7839C1478.65 57.8514 1495.2 90.0932 1479.15 114.012C1462.81 138.351 1421.14 129.938 1395.95 145.904C1372.12 161.012 1364.08 195.78 1336.89 204.196C1310.08 212.492 1280.34 200.807 1254.71 189.62C1230.98 179.262 1218.97 152.434 1195.12 142.324C1163.56 128.944 1112.06 150.622 1094.96 121.895C1077.81 93.0766 1129.55 61.5948 1127.38 28.4854C1125.33 -2.65011 1078.22 -23.1365 1083.4 -53.9367C1088.26 -82.8441 1127.96 -92.6015 1150.97 -111.867C1171.71 -129.226 1190.5 -147.661 1213.2 -162.601C1238.99 -179.583 1263.3 -201.279 1294.18 -206.144Z" fill="#E6E4F2"/>
<path fill-rule="evenodd" clip-rule="evenodd" d="M25.5182 780.397C-8.58706 771.357 -44.7285 773.615 -76.6343 759.381C-115.364 742.103 -157.819 724.14 -178.074 689.572C-199.028 653.809 -197.946 609.827 -187.207 570.671C-176.671 532.255 -152.114 497.261 -118.444 472.154C-86.9357 448.658 -45.6967 440.188 -5.22862 434.972C30.6507 430.348 65.0645 443.323 101.332 443.827C147.904 444.474 196.855 419.242 238.504 438.357C280.418 457.593 305.44 501 316.174 542.427C326.591 582.636 314.508 624.836 296.62 662.672C280.653 696.445 248.12 719.297 220.046 745.757C193.042 771.209 172.896 808.551 134.61 815.369C96.2175 822.205 63.1709 790.376 25.5182 780.397Z" fill="#564C9F"/>
<path fill-rule="evenodd" clip-rule="evenodd" d="M41.9055 726.232C16.8933 718.787 -9.84277 719.065 -33.1294 708.113C-61.3963 694.819 -92.4014 680.92 -106.687 656.35C-121.466 630.93 -119.81 600.619 -111.116 573.98C-102.587 547.844 -83.7681 524.567 -58.4125 508.434C-34.6841 493.337 -4.06212 488.953 25.927 486.787C52.5156 484.866 77.6791 495.039 104.454 496.67C138.837 498.766 175.481 483.089 205.869 497.753C236.45 512.511 254.084 543.35 261.204 572.316C268.114 600.431 258.368 629.123 244.42 654.598C231.97 677.337 207.497 691.954 186.248 709.218C165.809 725.825 150.203 750.879 121.794 754.227C93.3057 757.585 69.5193 734.452 41.9055 726.232Z" fill="#3D348B"/>
</svg>
