<svg width="294" height="360" viewBox="0 0 294 360" fill="none" xmlns="http://www.w3.org/2000/svg">
<ellipse cx="124" cy="331" rx="124" ry="29" fill="black" fill-opacity="0.08"/>
<rect x="94" y="240" width="200" height="120" rx="20" fill="#C6F7E2"/>
<g filter="url(#filter0_dd)">
<rect x="104" y="250" width="180" height="100" rx="20" fill="#EFFCF6"/>
<g clip-path="url(#clip0)">
<path d="M193.995 330C193.139 330 192.285 329.79 191.536 329.383L183.707 325.04C182.539 324.428 183.109 324.21 183.493 324.083C185.053 323.575 185.368 323.458 187.035 322.573C187.208 322.48 187.437 322.515 187.616 322.615L193.632 325.963C193.744 326.018 193.868 326.047 193.995 326.047C194.121 326.047 194.246 326.018 194.357 325.963L217.811 313.273C217.92 313.211 218.01 313.124 218.073 313.019C218.136 312.915 218.168 312.797 218.168 312.678V287.303C218.168 287.181 218.134 287.061 218.07 286.955C218.006 286.849 217.914 286.76 217.803 286.698L194.36 274.018C194.25 273.96 194.125 273.929 193.999 273.929C193.872 273.929 193.748 273.96 193.637 274.018L170.2 286.7C170.088 286.762 169.996 286.85 169.931 286.956C169.866 287.061 169.831 287.181 169.829 287.303V312.678C169.83 312.798 169.864 312.915 169.93 313.019C169.995 313.122 170.088 313.207 170.2 313.265L176.624 316.745C180.109 318.38 182.245 316.455 182.245 314.52V289.468C182.245 289.113 182.549 288.835 182.928 288.835H185.901C186.272 288.835 186.581 289.115 186.581 289.468V314.52C186.581 318.883 184.048 321.383 179.637 321.383C178.283 321.383 177.213 321.383 174.235 320.005L168.08 316.688C167.332 316.279 166.711 315.694 166.28 314.99C165.848 314.287 165.621 313.489 165.621 312.678V287.303C165.621 285.655 166.563 284.115 168.08 283.295L191.533 270.59C192.289 270.203 193.136 269.999 193.997 269.999C194.859 269.999 195.706 270.203 196.461 270.59L219.912 283.295C221.432 284.118 222.376 285.655 222.376 287.303V312.678C222.374 313.489 222.146 314.287 221.714 314.99C221.282 315.694 220.66 316.279 219.912 316.688L196.461 329.383C195.715 329.79 194.864 330 193.995 330ZM212.931 304.983C212.931 300.233 209.507 298.968 202.299 298.075C195.016 297.173 194.275 296.705 194.275 295.108C194.275 293.788 194.901 292.025 200.296 292.025C205.115 292.025 206.891 292.998 207.621 296.043C207.655 296.183 207.738 296.309 207.858 296.4C207.977 296.49 208.126 296.54 208.28 296.54H211.323C211.416 296.539 211.507 296.521 211.593 296.486C211.678 296.451 211.755 296.401 211.819 296.338C211.883 296.272 211.932 296.195 211.963 296.11C211.994 296.026 212.005 295.936 211.997 295.848C211.525 290.603 207.808 288.158 200.296 288.158C193.608 288.158 189.619 290.803 189.619 295.24C189.619 300.053 193.587 301.383 200.005 301.978C207.685 302.683 208.28 303.735 208.28 305.15C208.28 307.608 206.176 308.655 201.235 308.655C195.029 308.655 193.664 307.195 193.205 304.3C193.18 304.15 193.098 304.013 192.974 303.914C192.85 303.816 192.693 303.762 192.531 303.763H189.499C189.41 303.762 189.322 303.778 189.239 303.809C189.157 303.841 189.082 303.887 189.019 303.946C188.956 304.005 188.906 304.075 188.872 304.152C188.838 304.229 188.821 304.312 188.821 304.395C188.821 308.1 190.971 312.515 201.235 312.515C208.669 312.518 212.931 309.775 212.931 304.983Z" fill="#68A063"/>
</g>
</g>
<rect x="104" y="120" width="180" height="120" rx="20" fill="#B6E0FE"/>
<g filter="url(#filter1_dd)">
<rect x="114" y="130" width="160" height="100" rx="20" fill="#DCEEFB"/>
<path d="M217.621 170.456C216.94 170.222 216.253 170.006 215.561 169.807C215.677 169.332 215.784 168.863 215.879 168.402C217.439 160.831 216.419 154.733 212.937 152.725C209.598 150.8 204.138 152.807 198.623 157.606C198.08 158.08 197.548 158.567 197.029 159.068C196.682 158.735 196.329 158.409 195.969 158.089C190.19 152.957 184.397 150.795 180.918 152.808C177.583 154.739 176.595 160.473 177.999 167.647C178.138 168.358 178.296 169.065 178.472 169.767C177.652 170 176.86 170.248 176.103 170.512C169.327 172.875 165 176.577 165 180.417C165 184.383 169.646 188.362 176.703 190.774C177.275 190.969 177.852 191.149 178.433 191.315C178.245 192.072 178.077 192.834 177.931 193.6C176.592 200.65 177.637 206.247 180.964 208.166C184.4 210.148 190.167 208.111 195.782 203.202C196.238 202.803 196.683 202.393 197.118 201.972C197.68 202.514 198.257 203.04 198.848 203.55C204.287 208.231 209.66 210.121 212.983 208.197C216.416 206.209 217.532 200.196 216.083 192.88C215.969 192.306 215.841 191.736 215.699 191.169C216.104 191.049 216.502 190.926 216.889 190.797C224.226 188.366 229 184.436 229 180.417C229 176.563 224.533 172.836 217.621 170.456ZM216.029 188.202C215.68 188.318 215.32 188.43 214.954 188.538C214.144 185.974 213.051 183.248 211.714 180.43C212.99 177.68 214.041 174.989 214.828 172.441C215.483 172.631 216.118 172.83 216.731 173.041C222.653 175.08 226.266 178.094 226.266 180.417C226.266 182.891 222.364 186.103 216.029 188.202ZM213.401 193.411C214.042 196.646 214.133 199.571 213.708 201.857C213.327 203.912 212.561 205.282 211.613 205.831C209.596 206.998 205.283 205.481 200.631 201.478C200.081 201.003 199.545 200.514 199.022 200.01C200.826 198.038 202.628 195.745 204.387 193.199C207.481 192.924 210.404 192.475 213.055 191.862C213.185 192.389 213.301 192.906 213.401 193.411ZM186.819 205.629C184.848 206.325 183.279 206.345 182.33 205.798C180.311 204.633 179.472 200.139 180.617 194.11C180.753 193.397 180.909 192.689 181.084 191.985C183.706 192.565 186.608 192.982 189.709 193.233C191.48 195.725 193.334 198.015 195.203 200.021C194.806 200.405 194.399 200.78 193.983 201.144C191.5 203.314 189.012 204.854 186.819 205.629ZM177.587 188.187C174.467 187.12 171.89 185.734 170.123 184.221C168.536 182.862 167.734 181.512 167.734 180.417C167.734 178.087 171.208 175.114 177.003 173.094C177.707 172.849 178.443 172.618 179.206 172.401C180.007 175.006 181.058 177.729 182.326 180.484C181.041 183.279 179.976 186.046 179.167 188.682C178.637 188.53 178.11 188.365 177.587 188.187ZM180.682 167.122C179.479 160.975 180.278 156.338 182.288 155.175C184.429 153.935 189.164 155.702 194.154 160.133C194.479 160.423 194.8 160.718 195.114 161.02C193.255 163.016 191.417 165.29 189.662 167.767C186.652 168.046 183.771 168.494 181.122 169.094C180.959 168.44 180.812 167.783 180.682 167.122V167.122ZM208.289 173.939C207.663 172.858 207.014 171.791 206.342 170.738C208.384 170.996 210.341 171.339 212.178 171.758C211.627 173.526 210.939 175.374 210.13 177.269C209.538 176.147 208.925 175.037 208.289 173.939ZM197.031 162.974C198.292 164.34 199.555 165.865 200.797 167.52C198.277 167.401 195.753 167.401 193.233 167.519C194.476 165.879 195.75 164.356 197.031 162.974ZM185.701 173.958C185.073 175.047 184.47 176.15 183.894 177.267C183.098 175.379 182.417 173.522 181.86 171.729C183.686 171.321 185.634 170.987 187.663 170.733C186.983 171.792 186.329 172.867 185.701 173.957V173.958ZM187.721 190.296C185.625 190.062 183.648 189.745 181.823 189.347C182.388 187.522 183.084 185.626 183.897 183.697C184.476 184.815 185.081 185.919 185.711 187.009C186.36 188.129 187.031 189.226 187.721 190.296ZM197.106 198.053C195.81 196.655 194.518 195.108 193.256 193.445C194.481 193.493 195.73 193.517 197 193.517C198.305 193.517 199.594 193.488 200.863 193.432C199.617 195.125 198.359 196.674 197.106 198.053ZM210.156 183.599C211.011 185.549 211.732 187.435 212.305 189.229C210.449 189.652 208.446 189.993 206.335 190.247C207.011 189.174 207.666 188.089 208.299 186.99C208.943 185.874 209.562 184.743 210.156 183.599ZM205.931 185.624C204.962 187.308 203.938 188.96 202.861 190.578C200.91 190.716 198.955 190.785 197 190.784C195.008 190.784 193.071 190.722 191.205 190.601C190.101 188.987 189.057 187.332 188.077 185.639H188.077C187.102 183.955 186.191 182.235 185.347 180.482C186.189 178.729 187.097 177.008 188.069 175.323L188.069 175.323C189.04 173.638 190.076 171.99 191.172 170.383C193.076 170.239 195.027 170.164 197 170.164H197C198.981 170.164 200.936 170.24 202.839 170.385C203.924 171.989 204.953 173.632 205.922 175.309C206.897 176.99 207.818 178.702 208.681 180.444C207.826 182.203 206.909 183.93 205.931 185.624ZM211.571 155.093C213.714 156.329 214.548 161.313 213.201 167.85C213.115 168.267 213.019 168.691 212.914 169.122C210.258 168.509 207.375 168.053 204.356 167.77C202.598 165.266 200.776 162.989 198.946 161.018C199.426 160.556 199.916 160.106 200.418 159.668C205.143 155.556 209.559 153.933 211.571 155.093ZM197 174.702C200.156 174.702 202.715 177.261 202.715 180.417C202.715 183.573 200.156 186.132 197 186.132C193.844 186.132 191.285 183.573 191.285 180.417C191.285 177.261 193.844 174.702 197 174.702Z" fill="#00D8FF"/>
</g>
<rect x="115" width="160" height="120" rx="20" fill="#004D98"/>
<g filter="url(#filter2_dd)">
<rect x="125" y="10" width="140" height="100" rx="20" fill="#A50044"/>
<path d="M195 35.625C180.664 35.625 169 46.5598 169 60C169 73.4402 180.664 84.375 195 84.375C209.336 84.375 221 73.4402 221 60C221 46.5598 209.336 35.625 195 35.625ZM212.875 71.25H207.222C207.047 71.2496 206.875 71.2061 206.724 71.1239C206.572 71.0416 206.446 70.9235 206.359 70.7812L204.341 67.5375C204.208 67.3254 204.17 67.0729 204.234 66.8344L206.091 59.8125C206.129 59.671 206.2 59.5396 206.301 59.4288C206.402 59.3179 206.529 59.2306 206.673 59.1738L210.185 57.7793C210.357 57.7111 210.545 57.6892 210.729 57.7161C210.914 57.743 211.086 57.8177 211.228 57.9316L216.431 62.1293C216.56 62.2328 216.658 62.3652 216.716 62.514C216.775 62.6628 216.793 62.8232 216.768 62.9801C216.337 65.752 215.304 68.4115 213.732 70.7941C213.644 70.9331 213.518 71.0481 213.368 71.128C213.218 71.2079 213.048 71.2499 212.875 71.25ZM179.815 57.7887L183.327 59.1832C183.471 59.24 183.598 59.3273 183.699 59.4381C183.8 59.549 183.871 59.6804 183.909 59.8219L185.766 66.8438C185.83 67.0823 185.792 67.3348 185.659 67.5469L183.641 70.7812C183.554 70.9235 183.428 71.0416 183.276 71.1239C183.125 71.2061 182.953 71.2496 182.778 71.25H177.125C176.954 71.2501 176.786 71.2091 176.637 71.1309C176.487 71.0528 176.362 70.94 176.273 70.8035C174.701 68.4208 173.668 65.7613 173.238 62.9895C173.212 62.8326 173.23 62.6722 173.289 62.5234C173.347 62.3746 173.445 62.2422 173.574 62.1387L178.778 57.941C178.918 57.8279 179.09 57.7538 179.273 57.7269C179.456 57.7 179.644 57.7214 179.815 57.7887ZM211.932 47.5652L209.674 53.5863C209.628 53.7094 209.556 53.8222 209.462 53.9177C209.367 54.0131 209.253 54.089 209.125 54.1406L205.428 55.609C205.258 55.6763 205.072 55.6983 204.889 55.6727C204.707 55.647 204.536 55.5747 204.395 55.4637L197.362 49.9336C197.25 49.8464 197.159 49.7373 197.097 49.6138C197.034 49.4903 197.001 49.3555 197 49.2188V45.2836C197 45.1294 197.041 44.9776 197.118 44.8417C197.196 44.7058 197.308 44.5899 197.445 44.5043L202.799 41.1598C202.938 41.0723 203.099 41.0193 203.267 41.0056C203.434 40.9919 203.602 41.0179 203.756 41.0812C206.837 42.3409 209.571 44.2421 211.75 46.6406C211.865 46.766 211.942 46.9176 211.974 47.0799C212.006 47.2423 211.992 47.4097 211.932 47.5652ZM187.2 41.1598L192.555 44.5043C192.692 44.5899 192.804 44.7058 192.882 44.8417C192.959 44.9776 193 45.1294 193 45.2836V49.2188C193 49.3557 192.968 49.491 192.906 49.6151C192.844 49.7392 192.754 49.8491 192.642 49.9371L185.61 55.4672C185.469 55.5782 185.298 55.6506 185.116 55.6762C184.933 55.7018 184.747 55.6798 184.577 55.6125L180.875 54.1406C180.747 54.0897 180.631 54.0142 180.536 53.9189C180.44 53.8237 180.367 53.7108 180.321 53.5875L178.062 47.5664C178.004 47.4103 177.99 47.2424 178.023 47.0798C178.056 46.9172 178.134 46.7657 178.25 46.6406C180.431 44.2397 183.167 42.3368 186.25 41.0766C186.403 41.0151 186.57 40.9906 186.736 41.0051C186.902 41.0196 187.062 41.0728 187.2 41.1598ZM189.364 79.534L186.897 73.7109C186.841 73.5786 186.818 73.4359 186.829 73.2937C186.84 73.1516 186.886 73.0137 186.962 72.8906L188.859 69.8438C188.946 69.7015 189.072 69.5834 189.224 69.5011C189.375 69.4189 189.547 69.3754 189.722 69.375H200.278C200.453 69.3754 200.625 69.4189 200.776 69.5011C200.928 69.5834 201.054 69.7015 201.141 69.8438L203.039 72.8906C203.116 73.0136 203.161 73.1515 203.173 73.2936C203.184 73.4357 203.161 73.5785 203.105 73.7109L200.656 79.5316C200.596 79.674 200.5 79.8004 200.376 79.8998C200.252 79.9993 200.104 80.0688 199.945 80.1023C196.696 80.8015 193.319 80.8015 190.07 80.1023C189.912 80.0684 189.765 79.9989 189.642 79.8999C189.519 79.8009 189.423 79.6753 189.364 79.534Z" fill="#EDBB00"/>
</g>
<defs>
<filter id="filter0_dd" x="98" y="243" width="192" height="116" filterUnits="userSpaceOnUse" color-interpolation-filters="sRGB">
<feFlood flood-opacity="0" result="BackgroundImageFix"/>
<feColorMatrix in="SourceAlpha" type="matrix" values="0 0 0 0 0 0 0 0 0 0 0 0 0 0 0 0 0 0 127 0"/>
<feOffset dy="-1"/>
<feGaussianBlur stdDeviation="3"/>
<feColorMatrix type="matrix" values="0 0 0 0 0 0 0 0 0 0 0 0 0 0 0 0 0 0 0.15 0"/>
<feBlend mode="normal" in2="BackgroundImageFix" result="effect1_dropShadow"/>
<feColorMatrix in="SourceAlpha" type="matrix" values="0 0 0 0 0 0 0 0 0 0 0 0 0 0 0 0 0 0 127 0"/>
<feOffset dy="3"/>
<feGaussianBlur stdDeviation="3"/>
<feColorMatrix type="matrix" values="0 0 0 0 0 0 0 0 0 0 0 0 0 0 0 0 0 0 0.15 0"/>
<feBlend mode="normal" in2="effect1_dropShadow" result="effect2_dropShadow"/>
<feBlend mode="normal" in="SourceGraphic" in2="effect2_dropShadow" result="shape"/>
</filter>
<filter id="filter1_dd" x="108" y="123" width="172" height="116" filterUnits="userSpaceOnUse" color-interpolation-filters="sRGB">
<feFlood flood-opacity="0" result="BackgroundImageFix"/>
<feColorMatrix in="SourceAlpha" type="matrix" values="0 0 0 0 0 0 0 0 0 0 0 0 0 0 0 0 0 0 127 0"/>
<feOffset dy="-1"/>
<feGaussianBlur stdDeviation="3"/>
<feColorMatrix type="matrix" values="0 0 0 0 0 0 0 0 0 0 0 0 0 0 0 0 0 0 0.15 0"/>
<feBlend mode="normal" in2="BackgroundImageFix" result="effect1_dropShadow"/>
<feColorMatrix in="SourceAlpha" type="matrix" values="0 0 0 0 0 0 0 0 0 0 0 0 0 0 0 0 0 0 127 0"/>
<feOffset dy="3"/>
<feGaussianBlur stdDeviation="3"/>
<feColorMatrix type="matrix" values="0 0 0 0 0 0 0 0 0 0 0 0 0 0 0 0 0 0 0.15 0"/>
<feBlend mode="normal" in2="effect1_dropShadow" result="effect2_dropShadow"/>
<feBlend mode="normal" in="SourceGraphic" in2="effect2_dropShadow" result="shape"/>
</filter>
<filter id="filter2_dd" x="119" y="3" width="152" height="116" filterUnits="userSpaceOnUse" color-interpolation-filters="sRGB">
<feFlood flood-opacity="0" result="BackgroundImageFix"/>
<feColorMatrix in="SourceAlpha" type="matrix" values="0 0 0 0 0 0 0 0 0 0 0 0 0 0 0 0 0 0 127 0"/>
<feOffset dy="-1"/>
<feGaussianBlur stdDeviation="3"/>
<feColorMatrix type="matrix" values="0 0 0 0 0 0 0 0 0 0 0 0 0 0 0 0 0 0 0.15 0"/>
<feBlend mode="normal" in2="BackgroundImageFix" result="effect1_dropShadow"/>
<feColorMatrix in="SourceAlpha" type="matrix" values="0 0 0 0 0 0 0 0 0 0 0 0 0 0 0 0 0 0 127 0"/>
<feOffset dy="3"/>
<feGaussianBlur stdDeviation="3"/>
<feColorMatrix type="matrix" values="0 0 0 0 0 0 0 0 0 0 0 0 0 0 0 0 0 0 0.15 0"/>
<feBlend mode="normal" in2="effect1_dropShadow" result="effect2_dropShadow"/>
<feBlend mode="normal" in="SourceGraphic" in2="effect2_dropShadow" result="shape"/>
</filter>
<clipPath id="clip0">
<rect width="64" height="60" fill="white" transform="translate(162 270)"/>
</clipPath>
</defs>
</svg>
