<svg width="64" height="64" viewBox="0 0 64 64" fill="none" xmlns="http://www.w3.org/2000/svg">
<circle cx="32" cy="32" r="32" fill="url(#paint0_radial)"/>
<g clip-path="url(#clip0)">
<path d="M51.2456 30.218L33.7812 12.7546C32.7761 11.7488 31.1448 11.7488 30.1384 12.7546L26.5119 16.3811L31.1123 20.9816C32.1814 20.6204 33.4073 20.8627 34.2595 21.7149C35.1158 22.5725 35.3564 23.809 34.9864 24.8815L39.42 29.3152C40.4927 28.9457 41.7303 29.1847 42.587 30.0429C43.7844 31.2397 43.7844 33.1796 42.587 34.3772C41.3894 35.575 39.4495 35.575 38.2512 34.3772C37.3506 33.4757 37.1281 32.153 37.5841 31.0435L33.4494 26.9088L33.4489 37.7896C33.7486 37.9378 34.0224 38.1335 34.2595 38.3693C35.4569 39.5661 35.4569 41.5061 34.2595 42.7047C33.0619 43.9019 31.1211 43.9019 29.9252 42.7047C28.7278 41.5061 28.7278 39.5663 29.9252 38.3694C30.2121 38.0823 30.5531 37.855 30.9284 37.7005V26.7183C30.5525 26.5649 30.2114 26.3374 29.9252 26.0494C29.018 25.1435 28.7998 23.8124 29.2647 22.6985L24.7297 18.163L12.7547 30.1372C11.7484 31.144 11.7484 32.7754 12.7547 33.7813L30.2194 51.2451C31.2248 52.251 32.8558 52.251 33.8625 51.2451L51.2455 33.8624C52.2514 32.8561 52.2514 31.2238 51.2455 30.218" fill="#DE4C36"/>
</g>
<defs>
<radialGradient id="paint0_radial" cx="0" cy="0" r="1" gradientUnits="userSpaceOnUse" gradientTransform="translate(32 32) rotate(90) scale(32)">
<stop offset="0.619797" stop-color="#DCDCDC" stop-opacity="0.7"/>
<stop offset="1" stop-color="white"/>
</radialGradient>
<clipPath id="clip0">
<rect width="40" height="40" fill="white" transform="translate(12 12)"/>
</clipPath>
</defs>
</svg>
