<svg width="37" height="48" viewBox="0 0 37 48" fill="none" xmlns="http://www.w3.org/2000/svg">
<path d="M28.63 37.3991C28.2821 36.9703 28.2669 36.2631 28.5961 35.8197L31.5786 31.8029C31.9078 31.3595 32.4568 31.3477 32.8047 31.7766L35.9075 35.601C36.2555 36.0298 36.2707 36.737 35.9414 37.1804L32.959 41.1972C32.6298 41.6406 32.0808 41.6524 31.7328 41.2235L28.63 37.3991Z" fill="#3D348B"/>
<path d="M1.26713 8.39914C0.919165 7.97025 0.903984 7.26311 1.23322 6.81969L4.2157 2.80283C4.54494 2.35941 5.09391 2.34763 5.44188 2.77651L8.54471 6.60092C8.89268 7.0298 8.90786 7.73694 8.57862 8.18037L5.59614 12.1972C5.2669 12.6406 4.71793 12.6524 4.36996 12.2235L1.26713 8.39914Z" fill="#3D348B"/>
<g filter="url(#filter0_d)">
<path d="M10.2934 7.58497C10.3098 4.52125 5.2087 1.97944 7.65072 2.00013L27.6081 2.00015C30.0501 2.02084 32.0164 4.52125 31.9999 7.58497C31.9956 8.38218 31.8575 9.13898 31.6124 9.82206C31.4617 10.4467 31.2213 11.0647 30.8871 11.6548L19.9265 31.0088H30C32.4371 31.0295 26.3705 33.2882 26.3541 36.3457C26.3376 39.4032 31.3277 42.0205 28.8906 41.9999H10.2934C9.82671 41.9959 9.37747 41.9013 8.9562 41.7293C8.50636 41.6076 8.06777 41.422 7.65072 41.1693C4.96916 39.5444 4.19356 35.7582 5.91838 32.7126L17.0786 13.0062H8.9562C6.51418 12.9855 10.2769 10.6487 10.2934 7.58497Z" fill="#3D348B"/>
</g>
<mask id="mask0" mask-type="alpha" maskUnits="userSpaceOnUse" x="5" y="2" width="27" height="40">
<path d="M10.2934 7.58497C10.3098 4.52125 5.2087 1.97944 7.65072 2.00013L27.6081 2.00015C30.0501 2.02084 32.0164 4.52125 31.9999 7.58497C31.9956 8.38218 31.8575 9.13898 31.6124 9.82206C31.4617 10.4467 31.2213 11.0647 30.8871 11.6548L19.9265 31.0088L30 31C32.4371 31.0206 26.3705 33.2882 26.3541 36.3457C26.3376 39.4032 31.3277 42.0205 28.8906 41.9999H10.2934C9.82671 41.9959 9.37747 41.9013 8.9562 41.7293C8.50636 41.6076 8.06777 41.422 7.65072 41.1693C4.96916 39.5444 4.19356 35.7582 5.91838 32.7126L17.0786 13.0062H13H8.9562C6.51418 12.9855 10.2769 10.6487 10.2934 7.58497Z" fill="#3D348B"/>
</mask>
<g mask="url(#mask0)">
<path d="M24.4623 7.30983C20.8774 4.14449 12.5723 6.06852 9.9434 6.37885L9.04717 4.74964L7.25472 2.65492L6 0.0947125L26.6132 -2L44 8.47356L37.9057 25.464L30.5566 35.7048C25.7767 37.4892 19.7302 38.684 15.1415 37.5668C10.5528 36.4496 14.544 23.99 24.4623 14.7577C26.6132 12.6899 26.0755 8.54296 24.4623 7.30983Z" fill="#6056A8" fill-opacity="0.71"/>
</g>
<defs>
<filter id="filter0_d" x="1" y="0" width="35" height="48" filterUnits="userSpaceOnUse" color-interpolation-filters="sRGB">
<feFlood flood-opacity="0" result="BackgroundImageFix"/>
<feColorMatrix in="SourceAlpha" type="matrix" values="0 0 0 0 0 0 0 0 0 0 0 0 0 0 0 0 0 0 127 0"/>
<feOffset dy="2"/>
<feGaussianBlur stdDeviation="2"/>
<feColorMatrix type="matrix" values="0 0 0 0 0 0 0 0 0 0 0 0 0 0 0 0 0 0 0.15 0"/>
<feBlend mode="normal" in2="BackgroundImageFix" result="effect1_dropShadow"/>
<feBlend mode="normal" in="SourceGraphic" in2="effect1_dropShadow" result="shape"/>
</filter>
</defs>
</svg>
