<svg width="64" height="64" viewBox="0 0 64 64" fill="none" xmlns="http://www.w3.org/2000/svg">
<circle cx="32" cy="32" r="32" fill="url(#paint0_radial)"/>
<path d="M32.8913 52.1251L31.8117 51.7671C31.8117 51.7671 31.9555 46.3046 29.9789 45.9208C28.6852 44.4143 30.1701 -18.3944 34.8995 45.7066C34.0022 46.1618 33.3156 46.9462 32.9833 47.8959C32.8052 49.2986 32.7744 50.716 32.8913 52.1251V52.1251Z" fill="url(#paint1_linear)"/>
<path d="M33.4749 46.8479C36.3493 44.6842 38.5505 41.7491 39.8229 38.3838C41.0952 35.0185 41.3863 31.3612 40.6624 27.837C38.5492 18.5148 33.5453 15.45 33.0063 14.2799C32.5412 13.5513 32.1442 12.7814 31.8203 11.9799L32.2185 37.9541C32.2185 37.9541 31.3934 45.892 33.4749 46.8479Z" fill="url(#paint2_linear)"/>
<path d="M31.2627 47.1929C31.2627 47.1929 22.4638 41.2 22.9727 30.5984C23.0201 27.4024 23.7529 24.2537 25.1216 21.3651C26.4903 18.4765 28.4629 15.9153 30.9062 13.8544C31.1918 13.6119 31.4186 13.3077 31.5697 12.9649C31.7209 12.622 31.7923 12.2494 31.7788 11.875C32.3265 13.0538 32.2374 29.4743 32.2949 31.3948C32.5177 38.8655 31.8794 45.7828 31.2627 47.1929V47.1929Z" fill="url(#paint3_linear)"/>
<defs>
<radialGradient id="paint0_radial" cx="0" cy="0" r="1" gradientUnits="userSpaceOnUse" gradientTransform="translate(32 32) rotate(90) scale(32)">
<stop offset="0.619797" stop-color="#DCDCDC" stop-opacity="0.7"/>
<stop offset="1" stop-color="white"/>
</radialGradient>
<linearGradient id="paint1_linear" x1="25.6343" y1="32.3628" x2="38.0423" y2="36.5734" gradientUnits="userSpaceOnUse">
<stop offset="0.231" stop-color="#999875"/>
<stop offset="0.563" stop-color="#9B9977"/>
<stop offset="0.683" stop-color="#A09F7E"/>
<stop offset="0.768" stop-color="#A9A889"/>
<stop offset="0.837" stop-color="#B7B69A"/>
<stop offset="0.896" stop-color="#C9C7B0"/>
<stop offset="0.948" stop-color="#DEDDCB"/>
<stop offset="0.994" stop-color="#F8F6EB"/>
<stop offset="1" stop-color="#FBF9EF"/>
</linearGradient>
<linearGradient id="paint2_linear" x1="30.1844" y1="11.7943" x2="35.6699" y2="46.0484" gradientUnits="userSpaceOnUse">
<stop stop-color="#48A547"/>
<stop offset="1" stop-color="#3F9143"/>
</linearGradient>
<linearGradient id="paint3_linear" x1="22.2158" y1="31.6478" x2="36.9367" y2="26.7178" gradientUnits="userSpaceOnUse">
<stop stop-color="#41A247"/>
<stop offset="0.352" stop-color="#4BA74B"/>
<stop offset="0.956" stop-color="#67B554"/>
<stop offset="1" stop-color="#69B655"/>
</linearGradient>
</defs>
</svg>
