<svg width="64" height="64" viewBox="0 0 64 64" fill="none" xmlns="http://www.w3.org/2000/svg">
<circle cx="32" cy="32" r="32" fill="url(#paint0_radial)"/>
<path d="M32 51.9262C31.3789 51.9262 30.7992 51.7795 30.2609 51.5228L24.7536 48.6251C23.9255 48.2216 24.3395 48.0749 24.588 48.0015C25.7059 47.6714 25.913 47.5981 27.0723 47.0111C27.1967 46.9377 27.3623 46.9744 27.4864 47.0478L31.7102 49.2853C31.8758 49.3586 32.0828 49.3586 32.207 49.2853L48.7289 40.8123C48.8945 40.739 48.9773 40.5923 48.9773 40.4089V23.4994C48.9773 23.316 48.8945 23.1693 48.7289 23.0959L32.207 14.6595C32.0414 14.5862 31.8344 14.5862 31.7102 14.6595L15.1883 23.0961C15.0227 23.1694 14.9398 23.3528 14.9398 23.4995V40.4089C14.9398 40.5556 15.0227 40.739 15.1883 40.8123L19.7019 43.123C22.145 44.2234 23.6769 42.9397 23.6769 41.6559V24.9665C23.6769 24.7464 23.8841 24.5264 24.1739 24.5264H26.2858C26.5342 24.5264 26.7827 24.7098 26.7827 24.9665V41.6558C26.7827 44.5535 25.002 46.2407 21.8964 46.2407C20.9441 46.2407 20.1988 46.2407 18.087 45.3237L13.7391 43.123C12.6625 42.5727 12 41.5457 12 40.4454V23.5362C12 22.4359 12.6625 21.4089 13.7391 20.8586L30.2609 12.3856C31.2961 11.8721 32.7039 11.8721 33.7391 12.3856L50.2609 20.8586C51.3375 21.4087 52 22.4357 52 23.5362V40.4455C52 41.5459 51.3375 42.5729 50.2609 43.123L33.7391 51.5963C33.2008 51.8163 32.5797 51.9264 32 51.9264V51.9262ZM37.0931 40.2987C29.8467 40.2987 28.3561 37.3644 28.3561 34.8702C28.3561 34.6501 28.5631 34.43 28.853 34.43H31.0061C31.2545 34.43 31.4617 34.5767 31.4617 34.7968C31.793 36.7408 32.7453 37.6945 37.1345 37.6945C40.6128 37.6945 42.1036 36.9976 42.1036 35.3471C42.1036 34.3934 41.6895 33.6965 36.265 33.2195C31.7516 32.8161 28.9358 31.9358 28.9358 28.7448C28.9358 25.7736 31.7514 24.013 36.472 24.013C41.7722 24.013 44.3809 25.6269 44.7122 29.1481C44.7122 29.2581 44.6708 29.3682 44.588 29.4782C44.5052 29.5516 44.3809 29.6249 44.2567 29.6249H42.1036C41.8964 29.6249 41.6895 29.4782 41.648 29.2948C41.1511 27.2775 39.8675 26.6173 36.472 26.6173C32.6627 26.6173 32.207 27.791 32.207 28.6713C32.207 29.7351 32.7453 30.0651 37.8798 30.6519C42.9731 31.2388 45.3747 32.0825 45.3747 35.237C45.3333 38.4648 42.352 40.2987 37.0931 40.2987V40.2987Z" fill="#539E43"/>
<defs>
<radialGradient id="paint0_radial" cx="0" cy="0" r="1" gradientUnits="userSpaceOnUse" gradientTransform="translate(32 32) rotate(90) scale(32)">
<stop offset="0.619797" stop-color="#DCDCDC" stop-opacity="0.7"/>
<stop offset="1" stop-color="white"/>
</radialGradient>
</defs>
</svg>
