<svg width="64" height="64" viewBox="0 0 64 64" fill="none" xmlns="http://www.w3.org/2000/svg">
<circle cx="32" cy="32" r="32" fill="url(#paint0_radial)"/>
<path d="M46.1768 24.9517C45.7085 24.7877 45.2363 24.6358 44.7605 24.4961C44.8404 24.1628 44.914 23.8335 44.9793 23.51C46.0515 18.1975 45.3506 13.9177 42.9565 12.5086C40.6611 11.1577 36.9072 12.5663 33.116 15.9342C32.7423 16.2667 32.377 16.6088 32.0203 16.9602C31.7815 16.7265 31.5385 16.4974 31.2914 16.273C27.318 12.6719 23.3353 11.1542 20.9438 12.5673C18.6505 13.9224 17.9714 17.9458 18.9366 22.9805C19.0327 23.4791 19.1411 23.9752 19.2618 24.4682C18.6981 24.6317 18.1541 24.8058 17.6335 24.991C12.975 26.6489 10 29.247 10 31.9419C10 34.7252 13.1938 37.517 18.0458 39.2098C18.4392 39.3465 18.8358 39.4731 19.2354 39.5896C19.1056 40.1206 18.9904 40.6552 18.8899 41.1928C17.9697 46.1402 18.6883 50.0684 20.9754 51.4149C23.3377 52.8054 27.3025 51.3763 31.163 47.9316C31.476 47.6515 31.7822 47.3635 32.0811 47.0679C32.4674 47.4483 32.864 47.8177 33.2705 48.1756C37.0102 51.4602 40.7034 52.7865 42.9883 51.4363C45.3483 50.0417 46.1154 45.8217 45.1196 40.6875C45.0411 40.2853 44.9531 39.8851 44.8557 39.4872C45.1342 39.403 45.4075 39.3163 45.6739 39.2261C50.718 37.5203 54 34.7624 54 31.9419C54 29.2372 50.9289 26.6216 46.1768 24.9517ZM45.0828 37.4051C44.8422 37.4863 44.5953 37.5647 44.3437 37.641C43.7868 35.8416 43.0354 33.9282 42.1157 31.9512C42.9933 30.0214 43.7159 28.1324 44.2571 26.3447C44.7072 26.4777 45.144 26.6179 45.5651 26.7658C49.6368 28.1966 52.1204 30.3119 52.1204 31.9419C52.1204 33.6781 49.4381 35.9319 45.0828 37.4051ZM43.2757 41.0602C43.716 43.3303 43.7788 45.383 43.4871 46.9877C43.2252 48.4296 42.6982 49.3909 42.0464 49.776C40.6599 50.5952 37.6946 49.5303 34.4965 46.7212C34.1184 46.3885 33.7495 46.0451 33.3901 45.6914C34.63 44.3074 35.8691 42.6984 37.0784 40.9114C39.2055 40.7188 41.2151 40.4037 43.0375 39.9737C43.1272 40.3433 43.2069 40.7058 43.2757 41.0602ZM25.0006 49.6344C23.6458 50.1226 22.5668 50.1367 21.9145 49.7528C20.5267 48.9358 19.9497 45.7816 20.7367 41.5507C20.8302 41.0507 20.9374 40.5535 21.0579 40.0596C22.8602 40.4667 24.8552 40.7593 26.9873 40.9358C28.2048 42.6844 29.4796 44.2916 30.7644 45.6989C30.4914 45.9686 30.2119 46.2314 29.9262 46.487C28.2189 48.0102 26.5082 49.0909 25.0006 49.6344ZM18.6539 37.3944C16.5084 36.6458 14.7365 35.673 13.5221 34.6114C12.4307 33.6575 11.8798 32.7103 11.8798 31.9419C11.8798 30.3065 14.2683 28.2205 18.2522 26.8028C18.7357 26.6309 19.2417 26.4686 19.7668 26.3163C20.3175 28.1444 21.0397 30.0558 21.9113 31.9886C21.0284 33.95 20.2958 35.8919 19.7398 37.7416C19.3751 37.6349 19.013 37.5192 18.6539 37.3944ZM20.7814 22.6119C19.9545 18.2984 20.5036 15.0445 21.8857 14.2279C23.3576 13.358 26.6126 14.5982 30.0434 17.7077C30.2671 17.9109 30.4872 18.1183 30.7035 18.3296C29.4251 19.7309 28.162 21.3261 26.9553 23.0644C24.8859 23.2602 22.9051 23.5745 21.0839 23.9958C20.9717 23.5372 20.8708 23.0758 20.7814 22.6121V22.6119ZM39.761 27.3958C39.3309 26.6373 38.8847 25.8884 38.423 25.1496C39.8268 25.3309 41.1719 25.5714 42.435 25.8654C42.0559 27.1061 41.5832 28.4031 41.0269 29.733C40.6202 28.9454 40.1982 28.1662 39.761 27.3958ZM32.0211 19.7009C32.8881 20.6596 33.7564 21.73 34.6104 22.8914C32.8779 22.8079 31.1425 22.8075 29.41 22.8903C30.2649 21.7396 31.1406 20.6707 32.0211 19.7009ZM24.2316 27.4089C23.7999 28.1731 23.3857 28.9475 22.9895 29.7314C22.4422 28.4063 21.9738 27.1033 21.5914 25.8451C22.8468 25.5584 24.1855 25.324 25.5805 25.1461C25.1136 25.8895 24.6638 26.6439 24.2316 27.4088V27.4089ZM25.6205 38.8742C24.1793 38.71 22.8205 38.4877 21.5655 38.2088C21.9539 36.9281 22.4326 35.5973 22.9917 34.2438C23.3895 35.0283 23.8054 35.8032 24.239 36.5677C24.6848 37.3537 25.1465 38.1235 25.6205 38.8742ZM32.073 44.3181C31.182 43.337 30.2935 42.2516 29.4257 41.0842C30.2682 41.1179 31.127 41.1351 32 41.1351C32.8968 41.1351 33.7834 41.1145 34.656 41.0749C33.7992 42.2633 32.9341 43.3503 32.073 44.3181ZM41.0446 34.1747C41.6327 35.5431 42.1284 36.8668 42.522 38.1256C41.2464 38.4228 39.869 38.6621 38.4176 38.8398C38.8827 38.0873 39.333 37.3254 39.7684 36.5545C40.211 35.771 40.6365 34.9776 41.0446 34.1747ZM38.1402 35.5959C37.4737 36.7778 36.7698 37.9372 36.0294 39.0723C34.6884 39.1692 33.3444 39.2174 32 39.2167C30.6307 39.2167 29.2988 39.1731 28.0163 39.0882C27.2566 37.9557 26.5392 36.7943 25.8656 35.6065H25.8658C25.1953 34.4249 24.5691 33.2178 23.9884 31.9877C24.5676 30.7573 25.192 29.5496 25.8601 28.3672L25.8599 28.3673C26.5278 27.1846 27.2395 26.0281 27.9934 24.9005C29.3019 24.7995 30.6437 24.7468 31.9998 24.7468H32C33.3623 24.7468 34.7058 24.8 36.014 24.9017C36.7603 26.0277 37.4674 27.1801 38.134 28.357C38.8044 29.5369 39.437 30.7387 40.0309 31.9605C39.4431 33.1948 38.8125 34.4074 38.1402 35.5959ZM42.0177 14.1707C43.491 15.038 44.0641 18.5358 43.1384 23.1226C43.0792 23.4152 43.0129 23.7133 42.9407 24.0156C41.115 23.5854 39.1328 23.2656 37.0574 23.0668C35.8485 21.3095 34.5957 19.7117 33.338 18.3286C33.6676 18.0043 34.0051 17.6884 34.35 17.3812C37.5985 14.4958 40.6345 13.3565 42.0177 14.1707ZM32 27.9314C34.1699 27.9314 35.9291 29.727 35.9291 31.9419C35.9291 34.1568 34.1699 35.9524 32 35.9524C29.8301 35.9524 28.0709 34.1568 28.0709 31.9419C28.0709 29.727 29.8301 27.9314 32 27.9314Z" fill="#00D8FF"/>
<defs>
<radialGradient id="paint0_radial" cx="0" cy="0" r="1" gradientUnits="userSpaceOnUse" gradientTransform="translate(32 32) rotate(90) scale(32)">
<stop offset="0.619797" stop-color="#DCDCDC" stop-opacity="0.7"/>
<stop offset="1" stop-color="white"/>
</radialGradient>
</defs>
</svg>
