<svg width="64" height="64" viewBox="0 0 64 64" fill="none" xmlns="http://www.w3.org/2000/svg">
<circle cx="32" cy="32" r="32" fill="url(#paint0_radial)"/>
<path d="M43.6371 24.9145C44.2882 21.7606 44.4279 19.3417 44.007 17.5852C43.7567 16.5405 43.2991 15.6883 42.6032 15.0734C41.8686 14.4242 40.9398 14.1057 39.8962 14.1057C38.1745 14.1057 36.3646 14.89 34.4304 16.3799C33.6414 16.9876 32.8226 17.7201 31.9723 18.5778C31.9046 18.4908 31.8281 18.4087 31.7429 18.3328C29.3387 16.1926 27.3147 14.863 25.5835 14.3503C24.5541 14.0454 23.5877 14.0164 22.7076 14.3122C21.7786 14.6245 21.0384 15.2701 20.5161 16.1744C19.6543 17.6667 19.427 19.6276 19.7483 22.0489C19.8793 23.0358 20.1032 24.1108 20.4196 25.2757C20.3002 25.2901 20.1805 25.3165 20.0621 25.3557C17.0118 26.3655 14.8519 27.4513 13.5442 28.6923C12.7662 29.4306 12.2581 30.2526 12.0744 31.1625C11.8806 32.1229 12.0696 33.0862 12.5913 33.9898C13.4515 35.4799 15.0333 36.6552 17.2868 37.5861C18.1917 37.9599 19.2155 38.2985 20.3593 38.6029C20.3071 38.7206 20.2666 38.8457 20.2395 38.9768C19.5884 42.1307 19.4487 44.5496 19.8696 46.3061C20.1199 47.3508 20.5775 48.203 21.2734 48.8179C22.008 49.467 22.9368 49.7856 23.9805 49.7856C25.7021 49.7856 27.512 49.0013 29.4462 47.5114C30.2436 46.8972 31.0714 46.1556 31.9315 45.286C32.02 45.4243 32.1286 45.5529 32.2571 45.6673C34.6613 47.8074 36.6853 49.1371 38.4165 49.6498C39.4459 49.9546 40.4123 49.9837 41.2924 49.6878C42.2214 49.3755 42.9616 48.7299 43.4839 47.8257C44.3457 46.3334 44.573 44.3724 44.2517 41.9512C44.116 40.9286 43.8805 39.8114 43.5458 38.5977C43.6766 38.5845 43.808 38.5568 43.9379 38.5138C46.9882 37.5041 49.1481 36.4182 50.4558 35.1772C51.2338 34.4389 51.7419 33.6169 51.9256 32.707C52.1194 31.7466 51.9304 30.7833 51.4087 29.8798C50.5485 28.3896 48.9667 27.2143 46.7132 26.2834C45.7814 25.8985 44.7234 25.5509 43.5381 25.2395C43.5803 25.1362 43.6137 25.0276 43.6371 24.9145Z" fill="#002C4B"/>
<path fill-rule="evenodd" clip-rule="evenodd" d="M28.9257 25.4737H35.0754C35.4525 25.4737 35.8008 25.6754 35.9884 26.0024L39.0689 31.3709C39.2551 31.6953 39.2551 32.0942 39.0689 32.4186L35.9884 37.7871C35.8008 38.1141 35.4525 38.3158 35.0754 38.3158H28.9257C28.5486 38.3158 28.2003 38.1141 28.0127 37.7871L24.9322 32.4186C24.746 32.0942 24.746 31.6953 24.9322 31.3709L28.0127 26.0024C28.2003 25.6754 28.5486 25.4737 28.9257 25.4737ZM34.3132 26.7951C34.6905 26.7951 35.0389 26.997 35.2265 27.3243L37.5459 31.3713C37.7317 31.6955 37.7317 32.0939 37.5459 32.4182L35.2265 36.4652C35.0389 36.7925 34.6905 36.9944 34.3132 36.9944H29.6879C29.3106 36.9944 28.9622 36.7925 28.7746 36.4652L26.4552 32.4182C26.2694 32.0939 26.2694 31.6955 26.4552 31.3713L28.7746 27.3243C28.9622 26.997 29.3106 26.7951 29.6879 26.7951H34.3132ZM33.4907 28.2403H30.5104C30.1335 28.2403 29.7854 28.4418 29.5977 28.7686L28.103 31.3704C27.9165 31.6951 27.9165 32.0944 28.103 32.4191L29.5977 35.0209C29.7854 35.3477 30.1335 35.5492 30.5104 35.5492H33.4907C33.8676 35.5492 34.2157 35.3477 34.4034 35.0209L35.8981 32.4191C36.0846 32.0944 36.0846 31.6951 35.8981 31.3704L34.4034 28.7686C34.2157 28.4418 33.8676 28.2403 33.4907 28.2403ZM32.6988 29.6236C33.0754 29.6236 33.4233 29.8248 33.6111 30.1512L34.3123 31.3697C34.4994 31.6947 34.4994 32.0947 34.3123 32.4198L33.6111 33.6383C33.4233 33.9647 33.0754 34.1659 32.6988 34.1659H31.3023C30.9257 34.1659 30.5778 33.9647 30.39 33.6383L29.6888 32.4198C29.5017 32.0947 29.5017 31.6947 29.6888 31.3697L30.39 30.1512C30.5778 29.8248 30.9257 29.6236 31.3023 29.6236H32.6988ZM32.0008 30.9863C31.6757 30.9863 31.3757 31.1594 31.2133 31.4405C31.0509 31.7216 31.0509 32.0679 31.2133 32.349C31.3757 32.6301 31.6757 32.8032 32.0003 32.8032C32.3254 32.8032 32.6254 32.6301 32.7878 32.349C32.9502 32.0679 32.9502 31.7216 32.7878 31.4405C32.6254 31.1594 32.3254 30.9863 32.0008 30.9863ZM24.6316 31.8949H26.2669Z" fill="#FFD94C"/>
<path fill-rule="evenodd" clip-rule="evenodd" d="M23.5495 34.8122C23.8255 34.6544 24.176 34.7526 24.3321 35.0314L24.4321 35.2092C25.2329 36.628 26.0671 37.9748 26.9348 39.2495C27.9595 40.7548 29.1119 42.2788 30.392 43.8213C30.593 44.0634 30.5652 44.4234 30.3296 44.6312L30.2008 44.7441C25.9676 48.4428 23.2163 49.1816 21.9469 46.9605C20.7052 44.788 21.1546 40.8385 23.295 35.1122C23.3424 34.9852 23.4325 34.879 23.5495 34.8122ZM41.5861 39.1666C41.8918 39.1127 42.1843 39.3141 42.2441 39.6199L42.2763 39.7866C43.3225 45.2622 42.5859 48 40.0664 48C37.602 48 34.4649 45.6651 30.6553 40.9952C30.5708 40.8916 30.5251 40.7616 30.5263 40.6277C30.529 40.3117 30.7864 40.0578 31.1012 40.0606L31.302 40.062C32.9064 40.0707 34.4661 40.0151 35.9811 39.895C37.7703 39.7533 39.6386 39.5105 41.5861 39.1666ZM43.0334 27.5394C43.1436 27.2427 43.4754 27.0871 43.7799 27.1893L43.9457 27.2454C49.386 29.0985 51.4531 31.1351 50.147 33.3551C48.8694 35.5266 45.1545 37.1075 39.0024 38.0976C38.866 38.1196 38.726 38.0939 38.6068 38.025C38.3256 37.8625 38.232 37.507 38.3976 37.2311L38.503 37.0549C39.3425 35.6456 40.1013 34.243 40.7793 32.8472C41.5799 31.1989 42.3313 29.4296 43.0334 27.5394ZM24.9975 25.9024C25.1339 25.8804 25.2739 25.9061 25.3931 25.975C25.6743 26.1375 25.7679 26.493 25.6023 26.769L25.4969 26.9452C24.6574 28.3545 23.8986 29.757 23.2206 31.1528C22.4199 32.8011 21.6686 34.5704 20.9665 36.4607C20.8563 36.7573 20.5245 36.913 20.22 36.8107L20.0541 36.7547C14.6139 34.9015 12.5468 32.8649 13.8529 30.6449C15.1305 28.4734 18.8453 26.8926 24.9975 25.9024ZM33.7991 19.2559C38.0323 15.5572 40.7836 14.8184 42.053 17.0395C43.2947 19.2121 42.8453 23.1615 40.7049 28.8878C40.6575 29.0148 40.5674 29.121 40.4504 29.1879C40.1744 29.3456 39.8239 29.2475 39.6677 28.9686L39.5678 28.7909C38.767 27.372 37.9328 26.0252 37.0651 24.7505C36.0404 23.2452 34.888 21.7213 33.6078 20.1787C33.4069 19.9366 33.4347 19.5766 33.6703 19.3689L33.7991 19.2559ZM24.144 15.7895C26.6084 15.7895 29.7455 18.1244 33.5552 22.7943C33.6397 22.8979 33.6853 23.0279 33.6842 23.1618C33.6814 23.4778 33.424 23.7317 33.1092 23.7289L32.9084 23.7275C31.304 23.7188 29.7443 23.7744 28.2293 23.8945C26.4401 24.0363 24.5718 24.279 22.6243 24.6229C22.3187 24.6768 22.0262 24.4754 21.9663 24.1696L21.9341 24.0029C20.8879 18.5273 21.6245 15.7895 24.144 15.7895Z" fill="#FF4154"/>
<defs>
<radialGradient id="paint0_radial" cx="0" cy="0" r="1" gradientUnits="userSpaceOnUse" gradientTransform="translate(32 32) rotate(90) scale(32)">
<stop offset="0.619797" stop-color="#DCDCDC" stop-opacity="0.7"/>
<stop offset="1" stop-color="white"/>
</radialGradient>
</defs>
</svg>
