<svg width="64" height="64" viewBox="0 0 64 64" fill="none" xmlns="http://www.w3.org/2000/svg">
<circle cx="32" cy="32" r="32" fill="url(#paint0_radial)"/>
<g clip-path="url(#clip0)">
<path d="M50.4328 42.7169C48.2981 44.0116 37.24 49.3024 34.8858 50.7305C32.5316 52.1589 31.2237 52.1451 29.3639 51.1105C27.5042 50.076 15.7364 44.5447 13.6166 43.3656C12.5572 42.7765 12 42.2791 12 41.8093V37.1045C12 37.1045 27.3203 33.2236 29.7936 32.1911C32.2667 31.1585 33.1248 31.1213 35.2295 32.0184C37.3345 32.9158 49.9198 35.558 52 36.4445L51.9991 41.0827C51.9994 41.5478 51.5194 42.058 50.4328 42.7169Z" fill="#912626"/>
<path d="M50.432 38.04C48.2975 39.3342 37.2397 44.6251 34.8854 46.0531C32.5314 47.4816 31.2236 47.4676 29.3639 46.4331C27.504 45.3993 15.7367 39.8671 13.617 38.6887C11.4973 37.5096 11.4529 36.6982 13.5351 35.7495C15.6173 34.8004 27.3201 29.4576 29.7937 28.4251C32.2668 27.3929 33.1248 27.3553 35.2295 28.2527C37.3343 29.1498 48.3262 34.2409 50.4061 35.1273C52.4867 36.0147 52.5665 36.7455 50.432 38.04Z" fill="#C6302B"/>
<path d="M50.4328 35.1044C48.2981 36.3993 37.24 41.6898 34.8858 43.1186C32.5316 44.5464 31.2237 44.5326 29.3639 43.498C27.5041 42.464 15.7364 36.9322 13.6166 35.7531C12.5572 35.164 12 34.6673 12 34.1973V29.492C12 29.492 27.3203 25.6113 29.7936 24.5787C32.2667 23.5462 33.1248 23.5087 35.2295 24.406C37.3347 25.3033 49.92 27.9449 52 28.8316L51.9991 33.4704C51.9994 33.9353 51.5194 34.4455 50.4328 35.1044Z" fill="#912626"/>
<path d="M50.432 30.4274C48.2975 31.722 37.2397 37.0125 34.8854 38.4411C32.5314 39.8691 31.2236 39.8551 29.3639 38.8205C27.504 37.7867 15.7367 32.2547 13.617 31.0762C11.4973 29.8974 11.4529 29.0858 13.5351 28.1367C15.6173 27.1882 27.3203 21.8451 29.7937 20.8127C32.2668 19.7803 33.1248 19.7429 35.2295 20.6402C37.3343 21.5372 48.3262 26.628 50.4061 27.5147C52.4867 28.402 52.5665 29.1329 50.432 30.4274Z" fill="#C6302B"/>
<path d="M50.4328 27.2097C48.2981 28.5042 37.24 33.7951 34.8858 35.2238C32.5316 36.6518 31.2237 36.6378 29.3639 35.6033C27.5041 34.5693 15.7364 29.0373 13.6166 27.8587C12.5572 27.2691 12 26.7722 12 26.3027V21.5973C12 21.5973 27.3203 17.7167 29.7936 16.6844C32.2667 15.6517 33.1248 15.6146 35.2295 16.5117C37.3347 17.4089 49.92 20.0506 52 20.9373L51.9991 25.5758C51.9994 26.0404 51.5194 26.5506 50.4328 27.2097Z" fill="#912626"/>
<path d="M50.432 22.5327C48.2975 23.8273 37.2397 29.1182 34.8855 30.5462C32.5314 31.9742 31.2236 31.9602 29.3639 30.9262C27.5042 29.8917 15.7367 24.36 13.6172 23.1813C11.4974 22.0027 11.4531 21.1909 13.5352 20.242C15.6174 19.2933 27.3203 13.9509 29.7938 12.9182C32.2669 11.8857 33.1249 11.8486 35.2295 12.7458C37.3344 13.6431 48.3263 18.7338 50.4061 19.6206C52.4867 20.5071 52.5666 21.2382 50.432 22.5327Z" fill="#C6302B"/>
<path d="M36.8879 17.9558L33.4489 18.3713L32.679 20.5269L31.4356 18.1215L27.4645 17.7062L30.4276 16.4627L29.5385 14.554L32.3128 15.8166L34.9281 14.8202L34.2212 16.7938L36.8879 17.9558Z" fill="white"/>
<path d="M32.4737 28.4136L26.0554 25.316L35.2523 23.6733L32.4737 28.4136Z" fill="white"/>
<path d="M23.5753 19.154C26.2901 19.154 28.4909 20.1467 28.4909 21.3711C28.4909 22.5958 26.2901 23.5884 23.5753 23.5884C20.8604 23.5884 18.6597 22.5956 18.6597 21.3711C18.6597 20.1467 20.8604 19.154 23.5753 19.154Z" fill="white"/>
<path d="M40.9524 18.5451L46.3955 21.048L40.9571 23.5486L40.9524 18.5449" fill="#621B1C"/>
<path d="M34.9304 21.3169L40.9523 18.5451L40.957 23.5486L40.3665 23.8173L34.9304 21.3169Z" fill="#9A2928"/>
</g>
<defs>
<radialGradient id="paint0_radial" cx="0" cy="0" r="1" gradientUnits="userSpaceOnUse" gradientTransform="translate(32 32) rotate(90) scale(32)">
<stop offset="0.619797" stop-color="#DCDCDC" stop-opacity="0.7"/>
<stop offset="1" stop-color="white"/>
</radialGradient>
<clipPath id="clip0">
<rect width="40" height="40" fill="white" transform="translate(12 12)"/>
</clipPath>
</defs>
</svg>
