<svg width="64" height="64" viewBox="0 0 64 64" fill="none" xmlns="http://www.w3.org/2000/svg">
<circle cx="32" cy="32" r="32" fill="url(#paint0_radial)"/>
<g clip-path="url(#clip0)">
<path d="M31.9781 46.735C23.8523 46.735 17.265 40.1477 17.265 32.022C17.265 23.8963 23.8523 17.3091 31.9781 17.3091C40.1037 17.3091 46.6909 23.8963 46.6909 32.022C46.6909 40.1477 40.1037 46.735 31.9781 46.735V46.735ZM31.9781 12.0439C20.9445 12.0439 12 20.9886 12 32.022C12 43.0556 20.9445 52 31.9781 52C43.0116 52 51.9561 43.0556 51.9561 32.022C51.9561 20.9886 43.0116 12.0439 31.978 12.0439H31.9781Z" fill="#CF272D"/>
<path d="M32.7993 27.0465C32.7993 24.7525 34.6592 22.8926 36.9534 22.8926C39.2476 22.8926 41.1073 24.7525 41.1073 27.0465C41.1073 29.3409 39.2476 31.2006 36.9534 31.2006C34.6592 31.2006 32.7993 29.3409 32.7993 27.0465" fill="#CF272D"/>
<path d="M32.7993 36.9973C32.7993 34.7032 34.6592 32.8432 36.9534 32.8432C39.2476 32.8432 41.1073 34.7032 41.1073 36.9973C41.1073 39.2915 39.2476 41.1513 36.9534 41.1513C34.6592 41.1513 32.7993 39.2915 32.7993 36.9973" fill="#CF272D"/>
<path d="M22.8486 36.9973C22.8486 34.7032 24.7086 32.8432 27.0027 32.8432C29.2969 32.8432 31.1568 34.7032 31.1568 36.9973C31.1568 39.2915 29.2969 41.1513 27.0027 41.1513C24.7086 41.1513 22.8486 39.2915 22.8486 36.9973Z" fill="#CF272D"/>
<path d="M22.8486 27.0465C22.8486 24.7523 24.7086 22.8926 27.0027 22.8926C29.2969 22.8926 31.1568 24.7523 31.1568 27.0465C31.1568 29.3409 29.2969 31.2006 27.0027 31.2006C24.7086 31.2006 22.8486 29.3409 22.8486 27.0465Z" fill="#CF272D"/>
</g>
<defs>
<radialGradient id="paint0_radial" cx="0" cy="0" r="1" gradientUnits="userSpaceOnUse" gradientTransform="translate(32 32) rotate(90) scale(32)">
<stop offset="0.619797" stop-color="#DCDCDC" stop-opacity="0.7"/>
<stop offset="1" stop-color="white"/>
</radialGradient>
<clipPath id="clip0">
<rect width="40" height="40" fill="white" transform="translate(12 12)"/>
</clipPath>
</defs>
</svg>
